<svg viewBox="0 0 96 96" xmlns="http://www.w3.org/2000/svg" aria-label="ReinforceLab simulation grid">
  <defs>
    <linearGradient id="grad-grid" x1="10" y1="10" x2="86" y2="86" gradientUnits="userSpaceOnUse">
      <stop offset="0" stop-color="#E7E7EC" stop-opacity="0.85"/>
      <stop offset="1" stop-color="#00D6B5" stop-opacity="0.85"/>
    </linearGradient>
  </defs>
  <path d="M18 26c18-6 42-8 60-2M18 42c18-4 42-4 60 0M18 58c18 4 42 4 60 0M18 74c18 6 42 8 60 2" fill="none" stroke="url(#grad-grid)" stroke-width="3" stroke-linecap="round" opacity="0.75"/>
  <path d="M26 18c-6 18-8 42-2 60M42 18c-4 18-4 42 0 60M58 18c4 18 4 42 0 60M74 18c6 18 8 42 2 60" fill="none" stroke="#6B5BFF" stroke-width="2.5" stroke-linecap="round" opacity="0.55"/>
  <circle cx="60" cy="48" r="4" fill="#FFC657"/>
</svg>
