<svg viewBox="0 0 96 96" xmlns="http://www.w3.org/2000/svg" aria-label="ReinforceLab guardrail shield">
  <defs>
    <linearGradient id="grad-shield" x1="14" y1="10" x2="82" y2="86" gradientUnits="userSpaceOnUse">
      <stop offset="0" stop-color="#6B5BFF"/>
      <stop offset="1" stop-color="#00D6B5"/>
    </linearGradient>
  </defs>
  <path d="M48 10c14 6 24 7 36 10v26c0 15-12 29-36 39-24-10-36-24-36-39V20c12-3 22-4 36-10Z" fill="url(#grad-shield)" opacity="0.92"/>
  <path d="M30 40c5-6 12-10 18-10s13 4 18 10" fill="none" stroke="#fff" stroke-width="4" stroke-linecap="round" opacity="0.6"/>
  <path d="M28 52c5-7 14-12 20-12s15 5 20 12" fill="none" stroke="#fff" stroke-width="4" stroke-linecap="round" opacity="0.8"/>
  <path d="M32 62c4-5 10-9 16-9s12 4 16 9" fill="none" stroke="#fff" stroke-width="4" stroke-linecap="round"/>
  <circle cx="48" cy="38" r="3" fill="#fff"/>
  <circle cx="60" cy="64" r="4" fill="#FFC657"/>
  <circle cx="36" cy="64" r="3" fill="#fff"/>
</svg>
